<?xml version="1.0" encoding="UTF-8" standalone="no"?>
<!-- Created with Inkscape (http://www.inkscape.org/) -->

<svg
   width="1357.88"
   height="200"
   viewBox="0 0 359.2724 52.916668"
   version="1.1"
   id="svg5"
   sodipodi:docname="logo-animate.svg"
   inkscape:version="1.1.2 (b8e25be8, 2022-02-05)"
   xmlns:inkscape="http://www.inkscape.org/namespaces/inkscape"
   xmlns:sodipodi="http://sodipodi.sourceforge.net/DTD/sodipodi-0.dtd"
   xmlns="http://www.w3.org/2000/svg"
   xmlns:svg="http://www.w3.org/2000/svg">
  <sodipodi:namedview
     id="namedview861"
     pagecolor="#ffffff"
     bordercolor="#666666"
     borderopacity="1.0"
     inkscape:pageshadow="2"
     inkscape:pageopacity="0.0"
     inkscape:pagecheckerboard="0"
     showgrid="false"
     inkscape:zoom="1.2362444"
     inkscape:cx="693.63309"
     inkscape:cy="110.41506"
     inkscape:window-width="1920"
     inkscape:window-height="1027"
     inkscape:window-x="1792"
     inkscape:window-y="25"
     inkscape:window-maximized="1"
     inkscape:current-layer="g1816" />
  <defs
     id="defs2">
    <clipPath
       clipPathUnits="userSpaceOnUse"
       id="clipPath-ev">
      <rect
         style="fill:none;stroke:#000000;stroke-width:1.04759;stroke-opacity:1;stop-color:#000000"
         id="rect1402"
         width="52.950691"
         height="28.424404"
         x="295.9111"
         y="13.708261" />
    </clipPath>
    <clipPath
       clipPathUnits="userSpaceOnUse"
       id="clipPath-unter">
      <rect
         style="fill:none;fill-opacity:1;stroke:#000000;stroke-width:1.04759;stroke-miterlimit:4;stroke-dasharray:none;stroke-opacity:1;stop-color:#000000"
         id="rect1617"
         width="118.22226"
         height="37.363461"
         x="138.49707"
         y="8.0570374" />
    </clipPath>
    <clipPath
       clipPathUnits="userSpaceOnUse"
       id="clipPath-im">
      <rect
         style="fill:none;fill-opacity:1;stroke:#000000;stroke-width:1.04759;stroke-miterlimit:4;stroke-dasharray:none;stroke-opacity:1;stop-color:#000000"
         id="rect1725"
         width="52.649323"
         height="39.213608"
         x="40.771229"
         y="6.6268802" />
    </clipPath>
  </defs>
  <g
     aria-label="THD"
     id="main"
     style="font-weight:bold;font-size:4.23333px;line-height:1;font-family:'Arial Black';-inkscape-font-specification:'Arial Black,  Bold';stroke-width:0.261897"
     transform="matrix(1,0,0,1.0206174,0,-0.02182015)">
    <rect
       style="fill:#00aa44;fill-opacity:1;fill-rule:nonzero;stroke:#000000;stroke-width:1.04759;stroke-miterlimit:4;stroke-dasharray:none;stroke-opacity:1;stop-color:#000000"
       id="background"
       width="358.22482"
       height="50.800114"
       x="0.52254957"
       y="0.54517335"
       ry="9.014884"
       rx="9.014884" />
    <path
       d="m 10.410639,10.222414 h 29.659973 v 7.639809 h -9.951276 v 23.299304 h -9.75742 V 17.862223 h -9.951277 z"
       id="T"
       style="font-size:4.19036px;letter-spacing:-0.261897px;stroke-width:0.0685899" />
    <g
       id="g1816"
       clip-path="url(#clipPath-im)">
      <g
         id="im">
        <path
           d="m 41.665294,10.222414 h 8.766601 v 5.845935 h -8.766601 z m 0,8.526194 h 8.766601 v 22.412919 h -8.766601 z"
           id="i"
           style="font-size:4.19036px;letter-spacing:-0.261897px;stroke-width:0.0685899" />
        <path
           d="m 53.382818,18.748608 h 8.185035 v 3.271194 q 1.766246,-2.047129 3.554029,-2.912411 1.809325,-0.865292 4.350993,-0.865292 2.735527,0 4.329456,0.949666 1.593928,0.949665 2.606288,2.827996 2.067798,-2.194865 3.769424,-2.975722 1.701624,-0.80196 4.200213,-0.80196 3.683265,0 5.751063,2.152647 2.067798,2.131554 2.067798,6.690113 V 41.161496 H 83.408976 V 28.393308 q 0,-1.519516 -0.603108,-2.258176 -0.883121,-1.160743 -2.197035,-1.160743 -1.550848,0 -2.498589,1.097432 -0.947738,1.097432 -0.947738,3.524448 V 41.161496 H 68.374361 V 28.815402 q 0,-1.477309 -0.172321,-2.004921 -0.280014,-0.844147 -0.969277,-1.350687 -0.689263,-0.527592 -1.615468,-0.527592 -1.50777,0 -2.477051,1.118536 -0.969277,1.118536 -0.969277,3.672174 v 11.438604 h -8.788149 z"
           id="m"
           style="font-size:4.19036px;letter-spacing:-0.261897px;stroke-width:0.0685899" />
      </g>
    </g>
    <path
       d="m 107.56864,10.222414 h 9.75742 v 10.826588 h 10.66208 V 10.222414 h 9.8005 v 30.939113 h -9.8005 V 28.646593 h -10.66208 v 12.514934 h -9.75742 z"
       id="H"
       style="font-size:4.19036px;letter-spacing:-0.261897px;stroke-width:0.0685899" />
    <g
       id="g1804"
       clip-path="url(#clipPath-unter)">
      <g
         id="unter">
        <path
           d="m 164.61235,41.161527 h -8.18503 v -3.629956 q -1.83086,2.237062 -3.7048,3.186768 -1.85241,0.949666 -4.56639,0.949666 -3.61865,0 -5.68644,-2.11044 -2.04626,-2.131554 -2.04626,-6.542377 V 18.748577 h 8.80968 v 12.325001 q 0,2.11044 0.79696,2.996825 0.79697,0.886437 2.24012,0.886437 1.57239,0 2.56321,-1.181858 1.01235,-1.181847 1.01235,-4.241993 v -10.78437 h 8.7666 z"
           id="u"
           style="font-size:4.19036px;letter-spacing:-0.261897px;stroke-width:0.0685899" />
        <path
           d="m 167.21864,18.748608 h 8.16349 v 3.65107 q 1.83087,-2.237072 3.70481,-3.186768 1.87394,-0.970811 4.56639,-0.970811 3.64018,0 5.68644,2.131544 2.0678,2.11045 2.0678,6.542377 v 14.245496 h -8.80968 v -12.32499 q 0,-2.110439 -0.79697,-2.975721 -0.79697,-0.886437 -2.24011,-0.886437 -1.59393,0 -2.58475,1.181857 -0.99082,1.181848 -0.99082,4.241984 v 10.763266 h -8.7666 z"
           id="n"
           style="font-size:4.19036px;letter-spacing:-0.261897px;stroke-width:0.0685899" />
        <path
           d="m 204.50362,10.222414 v 8.526194 h 4.82487 v 6.268029 h -4.82487 v 7.956375 q 0,1.435101 0.28003,1.899392 0.43077,0.717587 1.50776,0.717587 0.96925,0 2.71399,-0.548736 l 0.64617,5.930349 q -3.25247,0.696442 -6.07416,0.696442 -3.27401,0 -4.82486,-0.823105 -1.55085,-0.823106 -2.30473,-2.490327 -0.73235,-1.688346 -0.73235,-5.444944 v -7.893053 h -3.23092 v -6.268029 h 3.23093 v -4.115361 z"
           id="t"
           style="font-size:4.19036px;letter-spacing:-0.261897px;stroke-width:0.0685899" />
        <path
           d="m 236.12369,32.086616 h -17.57628 q 0.23697,2.068243 1.1416,3.08125 1.27084,1.456205 3.3171,1.456205 1.29236,0 2.4555,-0.63311 0.7108,-0.401032 1.52931,-1.413998 l 8.63736,0.780816 q -1.98164,3.376712 -4.78178,4.85402 -2.80014,1.456206 -8.03425,1.456206 -4.54485,0 -7.15114,-1.245158 -2.60629,-1.266273 -4.32945,-3.98874 -1.70163,-2.743581 -1.70163,-6.436858 0,-5.255001 3.42479,-8.505091 3.44633,-3.250079 9.49895,-3.250079 4.91102,0 7.75424,1.456205 2.84323,1.456205 4.32946,4.22089 1.48622,2.764674 1.48622,7.196611 z m -8.91738,-4.115361 q -0.25844,-2.490327 -1.37853,-3.566655 -1.09851,-1.076319 -2.90784,-1.076319 -2.08934,0 -3.33863,1.625035 -0.79691,1.012997 -1.0124,3.017939 z"
           id="e1"
           style="font-size:4.19036px;letter-spacing:-0.261897px;stroke-width:0.0685899" />
        <path
           d="m 237.52377,18.748608 h 8.20657 v 3.672174 q 1.18467,-2.384798 2.43396,-3.271183 1.27084,-0.907479 3.12324,-0.907479 1.93857,0 4.2433,1.181847 l -2.71398,6.120283 q -1.55086,-0.633111 -2.45552,-0.633111 -1.72316,0 -2.6709,1.392895 -1.357,1.962714 -1.357,7.344347 v 7.513177 h -8.80967 z"
           id="r"
           style="font-size:4.19036px;letter-spacing:-0.261897px;stroke-width:0.0685899" />
      </g>
    </g>
    <path
       d="m 267.39218,10.222414 h 14.49613 q 4.28636,0 6.9142,1.13965 2.64936,1.13964 4.37253,3.271183 1.72316,2.131554 2.49858,4.959539 0.77544,2.827996 0.77544,5.993671 0,4.959539 -1.16314,7.70312 -1.14159,2.722467 -3.18785,4.579663 -2.04626,1.836082 -4.39407,2.448109 -3.20939,0.844147 -5.81568,0.844147 H 267.3922 Z m 9.75742,7.006678 v 16.904663 h 2.3909 q 3.05861,0 4.35099,-0.654255 1.29237,-0.675297 2.02472,-2.321487 0.73238,-1.667252 0.73238,-5.381633 0,-4.917332 -1.63701,-6.73231 -1.637,-1.814988 -5.42796,-1.814988 z"
       id="D"
       style="font-size:4.19036px;letter-spacing:-0.261897px;stroke-width:0.0685899" />
    <g
       id="g1789"
       clip-path="url(#clipPath-ev)">
      <g
         id="ev">
        <path
           d="m 323.14354,32.086616 h -17.57629 q 0.23697,2.068243 1.1416,3.08125 1.27083,1.456205 3.31709,1.456205 1.29238,0 2.45551,-0.63311 0.7108,-0.401032 1.52931,-1.413998 l 8.63736,0.780816 q -1.98164,3.376712 -4.78178,4.85402 -2.80014,1.456206 -8.03425,1.456206 -4.54485,0 -7.15114,-1.245158 -2.60629,-1.266273 -4.32945,-3.98874 -1.70163,-2.743581 -1.70163,-6.436858 0,-5.255001 3.42479,-8.505091 3.44633,-3.250079 9.49895,-3.250079 4.91102,0 7.75425,1.456205 2.84321,1.456205 4.32945,4.22089 1.48623,2.764674 1.48623,7.196611 z m -8.91738,-4.115361 q -0.25845,-2.490327 -1.37854,-3.566655 -1.09852,-1.076319 -2.90784,-1.076319 -2.08933,0 -3.33862,1.625035 -0.79702,1.012997 -1.01241,3.017939 z"
           id="e2"
           style="font-size:4.19036px;letter-spacing:-0.261897px;stroke-width:0.0685899" />
        <path
           d="m 321.85116,18.748608 h 9.13278 l 4.43714,14.20329 4.58793,-14.20329 h 8.85277 l -9.71435,22.412919 h -7.77578 z"
           id="v"
           style="font-size:4.19036px;letter-spacing:-0.261897px;stroke-width:0.0685899" />
      </g>
    </g>
  </g>
</svg>
